<svg xmlns="http://www.w3.org/2000/svg" width="361.8" height="299.9" viewBox="0 0 361.8 299.9">
  <g fill="none" stroke="#000" stroke-width="1.75" stroke-linecap="round" stroke-miterlimit="10">
    <path d="M122.5 215.6c-4.5-22.1-3.8-48.9 4.2-69.9 2.7-7.1 6.2-14.1 11.4-19.7 8.4-8.9 20.3-13.1 31.7-17.5 16.9-6.5 33.6-6.9 45.7-20.3 3.3-3.6 6.9-15.2 11.7-16.2 6.8-1.4 12.8 4.4 19.5 6.4 0 0 3.6-6.3 4.7-2.8s6.2 8.8 8 9.4c1.7.6 21.4 7.3 22.7 27.7 1.4 20.3-7.5 28.3-16.8 33.4-9.4 5.1-32.2 15.1-46.4-3.7-14.2-18.8 4.8-18.5-14.7-13.6"/>
    <path d="M201.2 121.8s15.6 19.2.5 38.7c-9.4 12.1-14.3 13.9-12.7 24.3 1.6 10.5 6 28.4 19.9 30.9s31.9 1.1 40.7 31.5c7-2.8 48.1 4.3 68.3 11.1-5-15.8-4-38.4-6.6-57-2.6-18.6-1.7-37.8-8.1-37.9-6.4-.1-18.1 4.3-20.2-4.4-2.2-8.7 12.5-17.2 12.6-25.9.2-8.7-2.3-37.2 3.5-35.9 5.8 1.3 8.8 30.9 14.3 47.3s45.4 94.8 45.2 107.6c-.2 12.8 8.2 26.9-5.9 38.2-14.1 11.4-155.8 9.5-170.2 2.9-14.4-6.6-59.4-69.4-59.9-72.4"/>
    <path fill="#000" d="M211.7 128.6c3.6-8.4 11.2-14.9 20-17.1 1.3 2.7 3 5.6 5.8 6.9 2.8 1.3 6.9-.3 7-3.3.1-2.1-1.6-3.8-2.9-5.5-1.3-1.7-2.3-4.2-.8-5.7 5.1 1.4 10.3 2.7 15.4 4.1 2.9.8 6.3 1.4 8.5-.6 1.4-1.2 1.8-3.2 2.5-4.9 1.1-2.7 4.2-6.8 6.6-8.4 0 0 11.2 5.2 7.8 30-3.5 24.8-6.8 50.9-10 60.2-3.2 9.3-8.1 18.1-7.2 29.5.9 11.3-4.4 16.6-4.4 16.6s-3.5 7.9-6.9 3.9c-3.4-4-3.4-5.9-6.9-5.5s-3.9 1.7-3.9 1.7-4-6.4-8.3-8.2c-4.3-1.8-11.6-6.7-27.3-7.2-15.7-.5 5.3-35.5 3.4-49.3-2.1-13.7 1.6-37.2 1.6-37.2z"/>
    <path d="M293.3 87.1c-3.7 2.8-3.3 8.3-1.2 11.1 2.1 2.9 3 4.1 3.2 7.6-5.9-1.9-7.2-6.7-9.6-12.4-1.6-3.8-2.8-8.8-5.4-12-3.1-3.7-8.1-6.1-11.6-9.6-15.2-15.1-29.8-29.4-43.8-45.6-10.3 15.5-17.7 31.5-21.7 49.6-1.4 6.4-4.8 18.6-7.7 24.5"/>
    <path d="M154.5 114.7c4.7-8.3 10.4-22 14.1-30.8 10.8-25.5 25.1-49.4 39.3-73.2 1.7-2.8 3.4-5.6 6-7.5 4.7-3.4 11.5-2.7 16.6.1s9 7.4 12.7 11.9c11 13.2 22.1 26.5 31.7 40.8 2.8 4.2 5.7 8.7 9.8 11.6 2.7 1.9 5.9 3.1 8.6 5 7.6 5.4 10.1 15.5 10.5 24.7 0 .4 0 .8-.1 1.2-.8 1.7-3.3 0-4.1-1.7-1.5-3.3-2.7-6.8-4.9-9.7-2.3-2.8-6-4.9-9.5-3.8"/>
    <path d="M265.4 88.3c.2 1.4.4 2.9.1 4.2-.3 1.2-.9 2.3-1.5 3.4-.9 1.6-2 3.4-3.8 3.9"/>
    <path d="M258 88.2c-1.9.7-3.1 2.5-3.1 4.4"/>
    <path fill="#FFF" d="M138.8 244.6c-26.6 1.9-49 3.8-75.6 5.7-7.2.5-14.6 1.1-21.3 4s-12.4 8.8-13.3 16c-.8 7 3.1 13.8 8.5 18.3 12.6 10.5 30.8 9.5 47.2 8.6 42.7-2.5 85.6-1.5 128.3 1.8 3.4.3 8.2-.7 8.1-4.1 0-1.4-1-2.6-2-3.5-9.2-9.3-23.3-11.7-36.4-11.5-13.1.1-26.3 2.3-39.1.1-21.7-3.8-41.6-19.8-63.3-16.3"/>
    <path fill="#FFF" d="M204.7 159.6c-1.8 6.7-5.4 12.9-9.1 18.8-6 9.6-17 16.9-24.2 25.7-3.2 3.9-6.2 8-9.8 11.6-3.4 3.4-7.3 6.3-11.1 9.2-21.4 16-46.4 31.7-68.6 46.7-7.9 5.3-13.9 6.3-20.3 13.4-2.2 2.5-2.9 9.3-5.8 10.9-6.9 4.1-28.9-1.7-36.9-.6 0 0-26.4 6.6-15.4 1.1s19.8-5.9 19.8-5.9c15.3-2.5 28.1-12.8 40-22.8 20.1-16.8 42.1-34.7 61.1-52.8 10.9-10.4 15.9-25.5 24.5-37.9 6.8-9.7 15.8-17.7 24.8-25.4 4.8-4.1 10-8.3 16.3-9.2.1-.1 20.4-4 14.7 17.2z"/>
  </g>
</svg>