<svg xmlns="http://www.w3.org/2000/svg" width="381.4" height="282.3" viewBox="-34 0 336.4 282.3">
  <g fill="#FFF" stroke="#000" stroke-linejoin="round" stroke-width="1.75" stroke-linecap="round" stroke-miterlimit="10">
    <path d="M78 58.5c9.1-7.3 14.3-9 25.8-7.3m32.7 40.9s33.9-9.7 70.4-11.5c5.5.6 14 2.4 10.3 15.8S204 122.5 205.9 136c2.6 18.3 18 17 17.4 28.5s-10.9 34.2-.6 77.2c0 0-46.2 3-70.6 6.7s-37.6 6.3-44.7 6.7c-11 .6-15-3.4-15-3.4-2.5-1.2-4.5-3.6-7.2-4.3-4.7-1.2-8.7 3.1-12.5 6.1-13.6 11-29.3 13.2-29.3 13.2-6.4 2.2-12.8 4.3-19.1 6.5-.4.1-.7.2-1 .5-1.1 1-.1 2.8 1.2 3.5 3.7 2.2 8.4.5 12.6 0 0 0 8.4-.1 13.1 1.4 10.2 3.3 21.2 3 31.7 1.3 0 0 14.1-2 19.9-3.2 5.8-1.2 21.5-.9 21.5-.9 10.3-.6 109 5.9 123 4 14-1.8 9.7-2.4 19.5-24.3 32.8-59.6 23.1-111.3 23.1-121.6 0-10.3-.6-41.4-14.6-65.1-14-23.7-35.9-48-42-53.5S214.8 10 196 4.5s-35.2-6.1-67.5 9.5c0 0-7.3 2.9-10.9 8.9-1.7 2.9-6.7-1.5-10.1-1.5-6.2-.1-11.9 1.7-18.1 2-7.2.5-11.4-14-14.9-17.4S65.7 10 64 9.9l-.7-.1c-.5 0-1.1.1-1.5.5-.6.5-.7 2-1.4 2.2-.4.1-1.3-.6-1.7-.7-.4-.1-1-.1-1.3.3-.2.2-.3.4-.4.7-.1.3-.4.6-.7.7-.7-.1-4.9 3.6-4.9 3.6-1.5.8-3.6.1-5-.9-.5-.3-.9-.7-1.5-.8-.9-.1-1.8.6-2.2 1.4-.4.8-.4 1.8-.6 2.7-.3 1.7-.7 3.3-1.6 4.7-.1 1.7-5 4.7-8.7 5.5-8 1.8-11.5 20.9-11.5 20.9"/>
    <path d="M223 235.7s-46.2 3.6-70.5 7.5-37.9 11.4-44.9 11.8"/>
    <path  d="M150.4 65.9s-12.2 2.6-11 19 6.9 61.2 6.3 69.7c-.6 8.5-22.7 68.3-22.7 72.6s.6 12.8 6.1 17c5.5 4.3 12.8 10.3 12.8 21.3 0 3.1-1 6.5-1.7 9.5-.1.5-.2 1-.6 1.3-.4.3-.9.4-1.4.5-.9.1-2 .2-2.7-.3-.7-.6-.8-1.6-.8-2.4 0-2.6.4-5.1.4-7.7 0-2.6-.2-5.6-2.1-7.3-3.3-2.9-7.1-.1-7.1-.1.7.7 1 1.7 1.3 2.7 1.2 4.9.8 10.1.2 15.2 0 .2-.1.5-.3.7-.2.2-.4.2-.7.2-1.3 0-2.7 0-3.6-.9-.7-.8-.8-2-.8-3v-9.6c0-1.2.1-3.1-1.1-3.3.3 5.2.3 10.5.2 15.7 0 .3 0 .6-.2.9-.4.6-1.3.6-2 .4-1-.2-2.1-.4-2.7-1.2-.4-.6-.5-1.4-.6-2.1-.4-4.2-.8-8.4-1-12.5 1.1 4.8 1.1 9.9-.1 14.7-.1.3-.2.6-.4.8-.2.2-.4.2-.7.2-1.7.3-2.4.2-3.9-.4.6-3 .6-13.4-2.4-19.5s-1.8-13.4-1.8-20.1 6.7-56.6 8.5-66.9.6-52.3-6.1-77.2c-6.7-24.9-8.9-30.9-4.6-44.3 0 0 1.5-9.6 8.7-9.3"/>
    <path fill="#000" d="M81.8 51.8c3.6 4.7 12.9 28.3 15.2 33.7 3.3 7.7-12.4 21.1-16.7 28.1-4.4 7 6.2 17.5-8.8 23-8.9 3.2-5.5 16.7-5.8 26.2-.5 15.3-4 30.4-10.3 44.2-2.1 4.5-4.5 9.1-8.4 12.1-.7.5-1.5 2.9-2.4 2.9-1.4 0-2.4-3.1-3.2-4.2-3.9-5.2-7.1-11-9.4-17.1-1.8-4.8-3.8-10.5-8.7-11.9-3.3-.9-6.8.5-10.2.4-1.8-.9-5 .8-6.6-.4-.5-.3-.8-.8-1-1.3-.6-1.1-1.2-2.3-1.2-3.5.2-8.9-2.4-17.6-2.5-26.5-.2-19.2 5.4-5 1.7-23.9-1.3-6.4-1-3.6-2.4-10C-.2 117.5 0 111.2.5 105 1.7 89.8 5 74.7 10.2 60.3l.9-3.6s-1.3-12.8 9.5-11.9 7.2 8.6 16.8 6.8 15.7-4 20.1-3.4c6.6.9 4.1 11.3 4.1 11.3.1.3.2.6.3 1 .9 2 3.5 3 5.7 2.4 2.2-.5 3.8-2.3 4.8-4.3s.5-3.6.8-5.8l1.7 1.8c.2 1.1 6.5-2.8 6.5-2.8"/>
    <path d="M41.5 44.7c-1.4-.8-2.8-1.6-3.9-2.8-.9-1-1.5-2.3-2.1-3.6-.9-1.9-1.7-4.1-.9-6.1"/>
    <path d="M43.5 40.7c1.2-2.6.5-5.3-1.7-6.9"/>
  </g>
</svg>
