<svg xmlns="http://www.w3.org/2000/svg" width="376.9" height="350.7" viewBox="0 0 376.9 350.7">
  <g fill="#fff" stroke="#000" stroke-linejoin="round" stroke-miterlimit="10" stroke-width="1.886">
    <path stroke-linecap="round" d="M132.6 79.1c2.4 6.9.8 15.9 6.5 20.3 2.2 1.7 4.9 2.3 7.6 2.6 8.2 1.1 16.7.5 24.5 3.2 9 3.1 16.1 10.4 20.9 18.6s28.1 60 34.4 69"/>
    <path d="M89.1 36.1c-1.3-.7-2.6-1.4-4.1-1.7-1.3-.2-2.6 0-3.8.2-1.9.3-4.1.7-5.2 2.2"/>
    <path d="M86.5 43.2c-1.4 1.6-3.5 2.1-5.5 1.4"/>
    <path d="M184.2 184.4c-3.2-5.2-11.3-21.8-11-27.9l2.4-5.3c-5.5 13-14.7 24.2-20.8 37-7.9 16.5-10.3 35.2-9.9 53.5.1 5.1.4 10.3 2.3 15.1 4 10.4 14.5 17.2 25.3 19.6 10.9 2.5 22.2 1.3 33.2.2 10.1-1.1 20.3-2.1 30.4-3.2 11.5-1.2 23.3-2.4 34.2 1.3s20.7 13.5 20.3 25c-.3 8.3-5.7 15.7-12.5 20.4s-14.9 7.1-22.9 9.2c-36.1 9.4-73.3 14.3-110.6 14.5-10.6.1-21.3-.3-31.4-3.1-15.2-4.1-28.8-13.8-37.6-26.7-8.9-13-12.8-32.9-11.2-48.5"/>
    <path d="M176.1 276.9s42.6-50.6 44.4-62.7c-3.3 7.1 3.6 29.6 22.1 48 0 0 32.2 31.6 38.9 37.9 3.8 3.6 13.7 19.5 12.5 24.3s-7.1 18.3 1.6 20.9c14.1 4.1 16.6-1.5 30.8-2.5s25.5 3 29.2 3.2 10.9 2.7 18.3-2.7-8.4-5.2-8.4-5.2-33.4-11.2-45.5-22.1c-12.1-10.8-13.2-20.5-26.9-40.5s-21.3-40.6-40.2-73.2-29.3-32.8-37.7-33.4-66.5 37.8-66.5 37.8"/>
    <path fill="#000" d="M101.2 62.4c0 1 .9 2.1.9 3.1 3.2.6 6.5-1.3 8.3-4.1 1.8-2.7 2.2-6.2 2-9.4-.2-2.4-1-5.3-3.3-6.1-2.9-1.1-5.7 1.7-7 4.5 0 0-5.6-20.7-11.3-24.3-8.3-5.3-9.3-10.2-9.3-10.2 8.3-7.5 27.9-13.4 39-15.1 11-1.7 28.8 7.6 33.9 17.5 1.9 3.8 2.7 8 3.4 12.1.8 4.8 1.7 9.7 2.5 14.5 1 5.7 2 11.5 1.1 17.1 0 0-3 57.9-10.8 69-7.8 11.1-47.1 12.9-48.3-6.3-1.3-19.2-1.1-62.3-1.1-62.3z"/>

    <path d="M52.5 134.9s18.5 24.8 20.3 45 .5 54.9-2.3 72.5c-2.7 17.6-6.3 57.6-6.3 64.8 0 7.2-.9 14.9-5.8 19.8l-3.8 3.6c-4.1 3.1-7.2 5.1-12 7-6 2.4-12.7 2.8-19 1.1-.4-1.4 1.3-2.3 2.7-2.8l12.6-3.9c1.7-.5 3.7-1.7 3.2-3.4-10.3 1.3-16.8-1.2-27.1.1-3.4.4-11.4 4.5-13.5 1.7-.5-.6-.8-1.5-.3-2.1.2-.3.6-.5.9-.6 11.6-5.8 25.8-8 37.4-13.8 7.2-3.6 8.6-6.8 10.4-12.2 1.8-5.4 0-28.8-2.7-48.6s-.5-55.4-.5-63.5c0-8.1-5.5-33-5.5-33-3.9-12.2-7-25.1-5.1-37.8 1.9-12.7 9.8-25.2 22-29.2C69.9 95.7 89 103.9 95 93c1.9-3.4 2.3-7.6 1.1-11.3-5.7 0-11.3-.1-17-.1-2 0-4.3-.2-5.5-1.8-.6-.9-.7-2.1-.8-3.2-.4-5.1-.8-10.1-1.2-15.2-.1-1.7-.4-3.7-1.8-4.7-.5-.4-1.1-.6-1.5-1.1-1.2-1.5.5-3.4 1.9-4.7 4.3-4.4 5.2-10.9 6.3-16.9 1.1-6 1.7-11.2 7-14.2"/>
  </g>
</svg>
